<?xml version="1.0" encoding="UTF-8" standalone="no"?>
<svg
   xmlns:dc="http://purl.org/dc/elements/1.1/"
   xmlns:cc="http://creativecommons.org/ns#"
   xmlns:rdf="http://www.w3.org/1999/02/22-rdf-syntax-ns#"
   xmlns:svg="http://www.w3.org/2000/svg"
   xmlns="http://www.w3.org/2000/svg"
   xmlns:sodipodi="http://sodipodi.sourceforge.net/DTD/sodipodi-0.dtd"
   xmlns:inkscape="http://www.inkscape.org/namespaces/inkscape"
   width="150"
   height="80"
   viewBox="0 0 39.687499 21.166667"
   version="1.1"
   id="svg8"
   sodipodi:docname="nlp.svg"
   inkscape:version="1.0.1 (0767f8302a, 2020-10-17)">
  <defs
     id="defs2">
    <rect
       x="41.853388"
       y="19.602633"
       width="34.864387"
       height="6.3914131"
       id="rect838" />
  </defs>
  <sodipodi:namedview
     id="base"
     pagecolor="#ffffff"
     bordercolor="#666666"
     borderopacity="1.0"
     inkscape:pageopacity="0.0"
     inkscape:pageshadow="2"
     inkscape:zoom="5.0639792"
     inkscape:cx="103.30967"
     inkscape:cy="46.976453"
     inkscape:document-units="mm"
     inkscape:current-layer="layer1"
     inkscape:document-rotation="0"
     showgrid="false"
     units="px"
     inkscape:pagecheckerboard="true"
     inkscape:window-width="1600"
     inkscape:window-height="836"
     inkscape:window-x="0"
     inkscape:window-y="0"
     inkscape:window-maximized="1" />
  <metadata
     id="metadata5">
    <rdf:RDF>
      <cc:Work
         rdf:about="">
        <dc:format>image/svg+xml</dc:format>
        <dc:type
           rdf:resource="http://purl.org/dc/dcmitype/StillImage" />
        <dc:title />
      </cc:Work>
    </rdf:RDF>
  </metadata>
  <g
     inkscape:label="Calque 1"
     inkscape:groupmode="layer"
     id="layer1">
    <g
       id="g927">
      <g
         aria-label="NLP"
         id="text835"
         style="font-style:normal;font-variant:normal;font-weight:normal;font-stretch:normal;font-size:11.2889px;line-height:1.25;font-family:Audiowide;-inkscape-font-specification:Audiowide;fill:#1375e3;fill-opacity:1;stroke-width:0.264583">
        <path
           d="m 14.863514,13.923103 q 0,0.15434 -0.06063,0.286632 -0.05512,0.132292 -0.154341,0.23151 -0.09371,0.09371 -0.225998,0.148829 -0.132292,0.05512 -0.28112,0.05512 -0.132292,0 -0.270096,-0.04961 -0.132292,-0.04961 -0.237023,-0.159853 L 8.3977527,8.9676722 V 14.534952 H 6.9645915 V 7.2423666 q 0,-0.2204863 0.1212675,-0.3968754 Q 7.2126386,6.66359 7.4055641,6.5753955 7.609514,6.4927131 7.8244882,6.5368103 8.0394624,6.5753955 8.1938028,6.735248 l 5.2365502,5.462549 v -5.56728 h 1.433161 z"
           style="font-style:normal;font-variant:normal;font-weight:normal;font-stretch:normal;font-family:Audiowide;-inkscape-font-specification:Audiowide;fill:#1375e3;fill-opacity:1;stroke-width:0.264583"
           id="path889" />
        <path
           d="m 23.793211,14.534952 h -6.53742 q -0.15434,0 -0.286632,-0.05512 -0.132292,-0.05512 -0.231511,-0.148829 -0.09371,-0.09922 -0.148828,-0.23151 -0.05512,-0.132292 -0.05512,-0.286633 V 6.630517 h 1.433161 v 6.471274 h 5.826351 z"
           style="font-style:normal;font-variant:normal;font-weight:normal;font-stretch:normal;font-family:Audiowide;-inkscape-font-specification:Audiowide;fill:#1375e3;fill-opacity:1;stroke-width:0.264583"
           id="path891" />
        <path
           d="m 32.722909,9.9378121 q 0,0.4905819 -0.121268,0.8764329 -0.121267,0.385851 -0.330729,0.683508 -0.20395,0.292144 -0.474046,0.501606 -0.270096,0.209462 -0.567752,0.341754 -0.292144,0.132292 -0.595313,0.192926 -0.297657,0.06063 -0.56224,0.06063 h -3.241149 v -1.433161 h 3.241149 q 0.275608,-0.02205 0.496094,-0.110243 0.225998,-0.09371 0.385851,-0.248047 0.159853,-0.15434 0.248047,-0.369315 0.08819,-0.220486 0.08819,-0.4960939 V 9.2873774 Q 31.262187,9.0172816 31.173992,8.7912831 31.085798,8.5652846 30.931457,8.405432 30.782629,8.2455794 30.567655,8.1573849 30.352681,8.0636782 30.071561,8.0636782 h -3.230125 q -0.286632,0 -0.435461,0.1488283 -0.148828,0.1488283 -0.148828,0.4299483 V 14.534952 H 24.823986 V 8.6424548 q 0,-0.5512158 0.198438,-0.9370669 Q 25.226373,7.3195368 25.52403,7.082514 25.827199,6.8454912 26.179977,6.7407602 26.532755,6.630517 26.830412,6.630517 h 3.241149 q 0.48507,0 0.870921,0.1267797 0.385851,0.1212675 0.677995,0.3307295 0.297657,0.2039498 0.501607,0.4740456 0.209462,0.2700958 0.341753,0.5677523 0.137804,0.2921444 0.198438,0.5953131 0.06063,0.2976566 0.06063,0.5622402 z"
           style="font-style:normal;font-variant:normal;font-weight:normal;font-stretch:normal;font-family:Audiowide;-inkscape-font-specification:Audiowide;fill:#1375e3;fill-opacity:1;stroke-width:0.264583"
           id="path893" />
      </g>
      <g
         aria-label="natural language processing"
         id="text834"
         style="font-size:1.76389px;line-height:1.25;font-family:'Sansita One';-inkscape-font-specification:'Sansita One';fill:#666666;stroke-width:0.264583">
        <path
           d="M 8.1166987,16.256916 H 7.8927673 v -0.516765 q 0,-0.04392 -0.015503,-0.07838 -0.014642,-0.03531 -0.04048,-0.06029 -0.025838,-0.02498 -0.061151,-0.0379 -0.034451,-0.01378 -0.074931,-0.01378 H 7.3088233 v 0.707106 H 7.0848919 v -0.819933 q 0,-0.02325 0.00861,-0.04306 0.00861,-0.02067 0.024116,-0.03531 0.015503,-0.0155 0.036174,-0.02412 0.020671,-0.0086 0.043925,-0.0086 h 0.5047068 q 0.042202,0 0.088711,0.0095 0.04737,0.0095 0.093018,0.03101 0.046509,0.02067 0.08785,0.0534 0.042202,0.03187 0.07407,0.07838 0.032728,0.04565 0.051676,0.105937 0.018948,0.06029 0.018948,0.136081 z"
           style="font-style:normal;font-variant:normal;font-weight:normal;font-stretch:normal;font-size:1.76389px;font-family:Audiowide;-inkscape-font-specification:Audiowide;fill:#666666;stroke-width:0.264583"
           id="path838" />
        <path
           d="m 9.2759741,15.94858 q 0,0.04651 -0.016364,0.100769 -0.016364,0.0534 -0.053399,0.09991 -0.036173,0.04565 -0.095601,0.07665 -0.058567,0.03101 -0.1429716,0.03101 H 8.5637001 q -0.046509,0 -0.1007691,-0.01636 -0.053399,-0.01636 -0.099908,-0.05254 -0.045648,-0.03703 -0.076654,-0.0956 -0.031006,-0.05943 -0.031006,-0.143833 0,-0.04651 0.016364,-0.100769 0.016364,-0.05426 0.052538,-0.09991 0.037035,-0.04651 0.095602,-0.07752 0.059428,-0.03101 0.1438328,-0.03101 h 0.4039377 v 0.213596 H 8.5637001 q -0.045647,0 -0.070625,0.02842 -0.024977,0.02756 -0.024977,0.0689 0,0.04392 0.028422,0.0689 0.029283,0.02412 0.068902,0.02412 h 0.4022151 q 0.045648,0 0.070624,-0.02756 0.024977,-0.02756 0.024977,-0.0689 v -0.312642 q 0,-0.04392 -0.027561,-0.06976 -0.026699,-0.02584 -0.068041,-0.02584 H 8.4758501 v -0.212735 h 0.4917877 q 0.046509,0 0.099908,0.01637 0.05426,0.01636 0.099908,0.0534 0.046509,0.03617 0.077515,0.0956 0.031006,0.05857 0.031006,0.142972 z"
           style="font-style:normal;font-variant:normal;font-weight:normal;font-stretch:normal;font-size:1.76389px;font-family:Audiowide;-inkscape-font-specification:Audiowide;fill:#666666;stroke-width:0.264583"
           id="path840" />
        <path
           d="M 10.312087,15.54981 H 9.9210686 v 0.707106 H 9.6945535 V 15.54981 H 9.4034427 v -0.223932 h 0.2911108 v -0.304029 h 0.2265151 v 0.304029 h 0.3910184 z"
           style="font-style:normal;font-variant:normal;font-weight:normal;font-stretch:normal;font-size:1.76389px;font-family:Audiowide;-inkscape-font-specification:Audiowide;fill:#666666;stroke-width:0.264583"
           id="path842" />
        <path
           d="m 11.479114,16.144089 q 0,0.02412 -0.0086,0.04479 -0.0086,0.02067 -0.02412,0.03617 -0.01464,0.01464 -0.03531,0.02325 -0.01981,0.0086 -0.04306,0.0086 h -0.50643 q -0.04134,0 -0.08871,-0.0095 -0.04651,-0.0095 -0.09216,-0.03015 -0.04565,-0.02153 -0.08871,-0.0534 -0.0422,-0.03273 -0.07407,-0.07838 -0.03187,-0.04651 -0.05168,-0.106798 -0.01895,-0.06029 -0.01895,-0.136081 v -0.516765 h 0.223932 v 0.516765 q 0,0.04392 0.01464,0.07924 0.0155,0.03445 0.04134,0.05943 0.02584,0.02498 0.06029,0.03876 0.03531,0.01292 0.07579,0.01292 h 0.39188 v -0.707107 h 0.223931 z"
           style="font-style:normal;font-variant:normal;font-weight:normal;font-stretch:normal;font-size:1.76389px;font-family:Audiowide;-inkscape-font-specification:Audiowide;fill:#666666;stroke-width:0.264583"
           id="path844" />
        <path
           d="m 12.505753,15.54981 h -0.503845 q -0.04565,0 -0.0689,0.02325 -0.02326,0.02239 -0.02326,0.06632 v 0.617534 H 11.68582 v -0.617534 q 0,-0.0577 0.01464,-0.103353 0.01464,-0.04565 0.03876,-0.0801 0.02498,-0.03531 0.05684,-0.05943 0.03187,-0.02498 0.06632,-0.04048 0.03531,-0.0155 0.07063,-0.02239 0.03617,-0.0078 0.06718,-0.0078 h 0.505568 z"
           style="font-style:normal;font-variant:normal;font-weight:normal;font-stretch:normal;font-size:1.76389px;font-family:Audiowide;-inkscape-font-specification:Audiowide;fill:#666666;stroke-width:0.264583"
           id="path846" />
        <path
           d="m 13.541005,15.94858 q 0,0.04651 -0.01636,0.100769 -0.01637,0.0534 -0.0534,0.09991 -0.03617,0.04565 -0.0956,0.07665 -0.05857,0.03101 -0.142971,0.03101 h -0.403938 q -0.04651,0 -0.100769,-0.01636 -0.0534,-0.01636 -0.09991,-0.05254 -0.04565,-0.03703 -0.07665,-0.0956 -0.03101,-0.05943 -0.03101,-0.143833 0,-0.04651 0.01636,-0.100769 0.01636,-0.05426 0.05254,-0.09991 0.03703,-0.04651 0.0956,-0.07752 0.05943,-0.03101 0.143833,-0.03101 h 0.403938 v 0.213596 h -0.403938 q -0.04565,0 -0.07062,0.02842 -0.02498,0.02756 -0.02498,0.0689 0,0.04392 0.02842,0.0689 0.02928,0.02412 0.0689,0.02412 h 0.402215 q 0.04565,0 0.07062,-0.02756 0.02498,-0.02756 0.02498,-0.0689 v -0.312642 q 0,-0.04392 -0.02756,-0.06976 -0.0267,-0.02584 -0.06804,-0.02584 h -0.491788 v -0.212735 h 0.491788 q 0.04651,0 0.09991,0.01637 0.05426,0.01636 0.09991,0.0534 0.04651,0.03617 0.07752,0.0956 0.03101,0.05857 0.03101,0.142972 z"
           style="font-style:normal;font-variant:normal;font-weight:normal;font-stretch:normal;font-size:1.76389px;font-family:Audiowide;-inkscape-font-specification:Audiowide;fill:#666666;stroke-width:0.264583"
           id="path848" />
        <path
           d="m 14.143036,16.256916 h -0.09991 q -0.04823,0 -0.103353,-0.01636 -0.05426,-0.01636 -0.101631,-0.0534 -0.04737,-0.0379 -0.07838,-0.09732 -0.031,-0.06029 -0.031,-0.147278 v -1.010275 h 0.223931 v 1.010275 q 0,0.04134 0.02584,0.06632 0.02584,0.02412 0.0646,0.02412 h 0.09991 z"
           style="font-style:normal;font-variant:normal;font-weight:normal;font-stretch:normal;font-size:1.76389px;font-family:Audiowide;-inkscape-font-specification:Audiowide;fill:#666666;stroke-width:0.264583"
           id="path850" />
        <path
           d="m 15.262693,16.256916 h -0.09991 q -0.04823,0 -0.103353,-0.01636 -0.05426,-0.01636 -0.101631,-0.0534 -0.04737,-0.0379 -0.07837,-0.09732 -0.03101,-0.06029 -0.03101,-0.147278 v -1.010275 h 0.223931 v 1.010275 q 0,0.04134 0.02584,0.06632 0.02584,0.02412 0.0646,0.02412 h 0.09991 z"
           style="font-style:normal;font-variant:normal;font-weight:normal;font-stretch:normal;font-size:1.76389px;font-family:Audiowide;-inkscape-font-specification:Audiowide;fill:#666666;stroke-width:0.264583"
           id="path852" />
        <path
           d="m 16.36943,15.94858 q 0,0.04651 -0.01636,0.100769 -0.01636,0.0534 -0.0534,0.09991 -0.03617,0.04565 -0.0956,0.07665 -0.05857,0.03101 -0.142971,0.03101 h -0.403938 q -0.04651,0 -0.100769,-0.01636 -0.0534,-0.01636 -0.09991,-0.05254 -0.04565,-0.03703 -0.07665,-0.0956 -0.03101,-0.05943 -0.03101,-0.143833 0,-0.04651 0.01636,-0.100769 0.01636,-0.05426 0.05254,-0.09991 0.03703,-0.04651 0.0956,-0.07752 0.05943,-0.03101 0.143833,-0.03101 h 0.403938 v 0.213596 h -0.403938 q -0.04565,0 -0.07062,0.02842 -0.02498,0.02756 -0.02498,0.0689 0,0.04392 0.02842,0.0689 0.02928,0.02412 0.0689,0.02412 h 0.402216 q 0.04565,0 0.07062,-0.02756 0.02498,-0.02756 0.02498,-0.0689 v -0.312642 q 0,-0.04392 -0.02756,-0.06976 -0.0267,-0.02584 -0.06804,-0.02584 h -0.491788 v -0.212735 h 0.491788 q 0.04651,0 0.09991,0.01637 0.05426,0.01636 0.09991,0.0534 0.04651,0.03617 0.07751,0.0956 0.03101,0.05857 0.03101,0.142972 z"
           style="font-style:normal;font-variant:normal;font-weight:normal;font-stretch:normal;font-size:1.76389px;font-family:Audiowide;-inkscape-font-specification:Audiowide;fill:#666666;stroke-width:0.264583"
           id="path854" />
        <path
           d="m 17.594162,16.256916 h -0.223931 v -0.516765 q 0,-0.04392 -0.0155,-0.07838 -0.01464,-0.03531 -0.04048,-0.06029 -0.02584,-0.02498 -0.06115,-0.0379 -0.03445,-0.01378 -0.07493,-0.01378 h -0.39188 v 0.707106 h -0.223931 v -0.819933 q 0,-0.02325 0.0086,-0.04306 0.0086,-0.02067 0.02412,-0.03531 0.0155,-0.0155 0.03617,-0.02412 0.02067,-0.0086 0.04393,-0.0086 h 0.504706 q 0.0422,0 0.08871,0.0095 0.04737,0.0095 0.09302,0.03101 0.04651,0.02067 0.08785,0.0534 0.0422,0.03187 0.07407,0.07838 0.03273,0.04565 0.05168,0.105937 0.01895,0.06029 0.01895,0.136081 z"
           style="font-style:normal;font-variant:normal;font-weight:normal;font-stretch:normal;font-size:1.76389px;font-family:Audiowide;-inkscape-font-specification:Audiowide;fill:#666666;stroke-width:0.264583"
           id="path856" />
        <path
           d="m 18.805114,16.346489 q 0,0.05771 -0.01464,0.103353 -0.01464,0.04651 -0.03876,0.08096 -0.02412,0.03531 -0.05598,0.05943 -0.03187,0.02498 -0.06718,0.04048 -0.03445,0.0155 -0.07062,0.02239 -0.03531,0.0078 -0.06718,0.0078 h -0.403938 v -0.223932 h 0.403938 q 0.04565,0 0.06804,-0.02325 0.02239,-0.02325 0.02239,-0.06718 v -0.707107 q 0,-0.04392 -0.02239,-0.06632 -0.02239,-0.02325 -0.06804,-0.02325 h -0.403938 q -0.04134,0 -0.06546,0.02584 -0.02412,0.02498 -0.02412,0.06373 v 0.303169 q 0,0.04392 0.02325,0.06718 0.02325,0.02325 0.06804,0.02325 h 0.402216 v 0.223931 h -0.403938 q -0.03187,0 -0.06718,-0.0069 -0.03531,-0.0078 -0.07062,-0.02325 -0.03445,-0.0155 -0.06632,-0.03962 -0.03187,-0.02498 -0.05598,-0.05943 -0.02412,-0.03531 -0.03876,-0.08096 -0.01464,-0.04651 -0.01464,-0.104214 v -0.303169 q 0,-0.03187 0.0069,-0.06718 0.0078,-0.03531 0.02325,-0.06976 0.0155,-0.03531 0.03962,-0.06718 0.02498,-0.03187 0.05943,-0.05598 0.03531,-0.02412 0.08096,-0.03876 0.04565,-0.01464 0.103353,-0.01464 h 0.403938 q 0.03187,0 0.06718,0.0078 0.03617,0.0069 0.07062,0.02239 0.03531,0.0155 0.06718,0.04048 0.03187,0.02412 0.05598,0.05943 0.02411,0.03445 0.03876,0.0801 0.01464,0.04565 0.01464,0.103353 z"
           style="font-style:normal;font-variant:normal;font-weight:normal;font-stretch:normal;font-size:1.76389px;font-family:Audiowide;-inkscape-font-specification:Audiowide;fill:#666666;stroke-width:0.264583"
           id="path858" />
        <path
           d="m 20.029847,16.144089 q 0,0.02412 -0.0086,0.04479 -0.0086,0.02067 -0.02412,0.03617 -0.01464,0.01464 -0.03531,0.02325 -0.01981,0.0086 -0.04306,0.0086 h -0.506429 q -0.04134,0 -0.08871,-0.0095 -0.04651,-0.0095 -0.09216,-0.03015 -0.04565,-0.02153 -0.08871,-0.0534 -0.0422,-0.03273 -0.07407,-0.07838 -0.03187,-0.04651 -0.05168,-0.106798 -0.01895,-0.06029 -0.01895,-0.136081 v -0.516765 h 0.223931 v 0.516765 q 0,0.04392 0.01464,0.07924 0.0155,0.03445 0.04134,0.05943 0.02584,0.02498 0.06029,0.03876 0.03531,0.01292 0.07579,0.01292 h 0.391879 v -0.707107 h 0.223932 z"
           style="font-style:normal;font-variant:normal;font-weight:normal;font-stretch:normal;font-size:1.76389px;font-family:Audiowide;-inkscape-font-specification:Audiowide;fill:#666666;stroke-width:0.264583"
           id="path860" />
        <path
           d="m 21.202902,15.94858 q 0,0.04651 -0.01636,0.100769 -0.01636,0.0534 -0.0534,0.09991 -0.03617,0.04565 -0.0956,0.07665 -0.05857,0.03101 -0.142971,0.03101 h -0.403938 q -0.04651,0 -0.100769,-0.01636 -0.0534,-0.01636 -0.09991,-0.05254 -0.04565,-0.03703 -0.07665,-0.0956 -0.03101,-0.05943 -0.03101,-0.143833 0,-0.04651 0.01636,-0.100769 0.01636,-0.05426 0.05254,-0.09991 0.03703,-0.04651 0.0956,-0.07752 0.05943,-0.03101 0.143833,-0.03101 h 0.403938 v 0.213596 h -0.403938 q -0.04565,0 -0.07062,0.02842 -0.02498,0.02756 -0.02498,0.0689 0,0.04392 0.02842,0.0689 0.02928,0.02412 0.0689,0.02412 h 0.402215 q 0.04565,0 0.07062,-0.02756 0.02498,-0.02756 0.02498,-0.0689 v -0.312642 q 0,-0.04392 -0.02756,-0.06976 -0.0267,-0.02584 -0.06804,-0.02584 h -0.491788 v -0.212735 h 0.491788 q 0.04651,0 0.09991,0.01637 0.05426,0.01636 0.09991,0.0534 0.04651,0.03617 0.07751,0.0956 0.03101,0.05857 0.03101,0.142972 z"
           style="font-style:normal;font-variant:normal;font-weight:normal;font-stretch:normal;font-size:1.76389px;font-family:Audiowide;-inkscape-font-specification:Audiowide;fill:#666666;stroke-width:0.264583"
           id="path862" />
        <path
           d="m 22.408687,16.346489 q 0,0.05771 -0.01464,0.103353 -0.01464,0.04651 -0.03876,0.08096 -0.02412,0.03531 -0.05598,0.05943 -0.03187,0.02498 -0.06718,0.04048 -0.03445,0.0155 -0.07062,0.02239 -0.03531,0.0078 -0.06718,0.0078 h -0.403937 v -0.223932 h 0.403937 q 0.04565,0 0.06804,-0.02325 0.02239,-0.02325 0.02239,-0.06718 v -0.707107 q 0,-0.04392 -0.02239,-0.06632 -0.02239,-0.02325 -0.06804,-0.02325 h -0.403937 q -0.04134,0 -0.06546,0.02584 -0.02412,0.02498 -0.02412,0.06373 v 0.303169 q 0,0.04392 0.02325,0.06718 0.02325,0.02325 0.06804,0.02325 h 0.402215 v 0.223931 h -0.403937 q -0.03187,0 -0.06718,-0.0069 -0.03531,-0.0078 -0.07062,-0.02325 -0.03445,-0.0155 -0.06632,-0.03962 -0.03187,-0.02498 -0.05598,-0.05943 -0.02412,-0.03531 -0.03876,-0.08096 -0.01464,-0.04651 -0.01464,-0.104214 v -0.303169 q 0,-0.03187 0.0069,-0.06718 0.0078,-0.03531 0.02325,-0.06976 0.0155,-0.03531 0.03962,-0.06718 0.02498,-0.03187 0.05943,-0.05598 0.03531,-0.02412 0.08096,-0.03876 0.04565,-0.01464 0.103353,-0.01464 h 0.403937 q 0.03187,0 0.06718,0.0078 0.03617,0.0069 0.07062,0.02239 0.03531,0.0155 0.06718,0.04048 0.03187,0.02412 0.05598,0.05943 0.02411,0.03445 0.03876,0.0801 0.01464,0.04565 0.01464,0.103353 z"
           style="font-style:normal;font-variant:normal;font-weight:normal;font-stretch:normal;font-size:1.76389px;font-family:Audiowide;-inkscape-font-specification:Audiowide;fill:#666666;stroke-width:0.264583"
           id="path864" />
        <path
           d="m 23.617054,15.634215 q 0,0.04651 -0.01636,0.100769 -0.01636,0.0534 -0.0534,0.09991 -0.03617,0.04565 -0.0956,0.07665 -0.05857,0.03101 -0.142972,0.03101 h -0.403937 v -0.212735 h 0.403937 q 0.04565,0 0.07062,-0.02756 0.02498,-0.02842 0.02498,-0.06976 0,-0.04392 -0.02842,-0.0689 -0.02756,-0.02498 -0.06718,-0.02498 h -0.403937 q -0.04565,0 -0.07062,0.02842 -0.02498,0.02756 -0.02498,0.0689 v 0.312643 q 0,0.04479 0.02756,0.06976 0.02842,0.02498 0.06976,0.02498 h 0.402215 v 0.213596 h -0.403937 q -0.04651,0 -0.10077,-0.01636 -0.0534,-0.01636 -0.09991,-0.05254 -0.04565,-0.03703 -0.07665,-0.0956 -0.03101,-0.05943 -0.03101,-0.143833 v -0.314365 q 0,-0.04651 0.01636,-0.09991 0.01636,-0.05426 0.05254,-0.09991 0.03703,-0.04651 0.0956,-0.07752 0.05943,-0.03101 0.143833,-0.03101 h 0.403937 q 0.04651,0 0.09991,0.01637 0.05426,0.01636 0.09991,0.0534 0.04651,0.03617 0.07751,0.0956 0.03101,0.05857 0.03101,0.142972 z"
           style="font-style:normal;font-variant:normal;font-weight:normal;font-stretch:normal;font-size:1.76389px;font-family:Audiowide;-inkscape-font-specification:Audiowide;fill:#666666;stroke-width:0.264583"
           id="path866" />
        <path
           d="m 25.37147,15.942551 q 0,0.05771 -0.01464,0.104214 -0.01464,0.04565 -0.03876,0.08096 -0.02411,0.03445 -0.05598,0.05943 -0.03187,0.02412 -0.06718,0.03962 -0.03445,0.0155 -0.06976,0.02325 -0.03531,0.0069 -0.06718,0.0069 h -0.403937 v -0.223931 h 0.403937 q 0.04479,0 0.06718,-0.02325 0.02239,-0.02325 0.02239,-0.06718 v -0.301446 q 0,-0.04651 -0.02325,-0.0689 -0.02239,-0.02239 -0.06632,-0.02239 h -0.402215 q -0.04565,0 -0.0689,0.02325 -0.02325,0.02239 -0.02325,0.06632 v 0.908645 h -0.223932 v -0.908645 q 0,-0.0577 0.01464,-0.103353 0.01464,-0.04565 0.03876,-0.0801 0.02498,-0.03531 0.05684,-0.05943 0.03187,-0.02498 0.06632,-0.04048 0.03531,-0.0155 0.07062,-0.02239 0.03617,-0.0078 0.06718,-0.0078 h 0.403937 q 0.05771,0 0.103353,0.01464 0.04565,0.01464 0.0801,0.03876 0.03531,0.02412 0.05943,0.05598 0.02498,0.03187 0.04048,0.06718 0.0155,0.03445 0.02239,0.06976 0.0078,0.03531 0.0078,0.06718 z"
           style="font-style:normal;font-variant:normal;font-weight:normal;font-stretch:normal;font-size:1.76389px;font-family:Audiowide;-inkscape-font-specification:Audiowide;fill:#666666;stroke-width:0.264583"
           id="path868" />
        <path
           d="m 26.379161,15.54981 h -0.503845 q -0.04565,0 -0.0689,0.02325 -0.02325,0.02239 -0.02325,0.06632 v 0.617534 h -0.223931 v -0.617534 q 0,-0.0577 0.01464,-0.103353 0.01464,-0.04565 0.03876,-0.0801 0.02498,-0.03531 0.05684,-0.05943 0.03187,-0.02498 0.06632,-0.04048 0.03531,-0.0155 0.07062,-0.02239 0.03617,-0.0078 0.06718,-0.0078 h 0.505568 z"
           style="font-style:normal;font-variant:normal;font-weight:normal;font-stretch:normal;font-size:1.76389px;font-family:Audiowide;-inkscape-font-specification:Audiowide;fill:#666666;stroke-width:0.264583"
           id="path870" />
        <path
           d="m 27.534991,15.942551 q 0,0.05771 -0.01464,0.104214 -0.01464,0.04565 -0.03876,0.08096 -0.02411,0.03445 -0.05598,0.05943 -0.03187,0.02412 -0.06718,0.03962 -0.03445,0.0155 -0.07062,0.02325 -0.03531,0.0069 -0.06718,0.0069 h -0.403938 q -0.04651,0 -0.10163,-0.01636 -0.05512,-0.01636 -0.102492,-0.0534 -0.04651,-0.0379 -0.07838,-0.09732 -0.03101,-0.06029 -0.03101,-0.147278 v -0.303169 q 0,-0.08613 0.03101,-0.145555 0.03187,-0.06029 0.07838,-0.09732 0.04737,-0.0379 0.102492,-0.05426 0.05512,-0.01637 0.10163,-0.01637 h 0.403938 q 0.08613,0 0.146417,0.03101 0.06029,0.03101 0.09732,0.07838 0.03703,0.04651 0.0534,0.101631 0.01722,0.05512 0.01722,0.102491 z M 27.31106,15.641105 q 0,-0.04651 -0.02326,-0.0689 -0.02325,-0.02239 -0.06718,-0.02239 h -0.402215 q -0.04479,0 -0.06804,0.02325 -0.02325,0.02239 -0.02325,0.06632 v 0.303169 q 0,0.04392 0.02325,0.06718 0.02325,0.02325 0.06804,0.02325 h 0.402215 q 0.04565,0 0.06804,-0.02325 0.02239,-0.02325 0.02239,-0.06718 z"
           style="font-style:normal;font-variant:normal;font-weight:normal;font-stretch:normal;font-size:1.76389px;font-family:Audiowide;-inkscape-font-specification:Audiowide;fill:#666666;stroke-width:0.264583"
           id="path872" />
        <path
           d="m 28.626226,16.256916 h -0.607198 q -0.04651,0 -0.101631,-0.01636 -0.05512,-0.01636 -0.102491,-0.0534 -0.04651,-0.0379 -0.07838,-0.09732 -0.03101,-0.06029 -0.03101,-0.147278 v -0.303169 q 0,-0.03187 0.0069,-0.06718 0.0078,-0.03531 0.02325,-0.06976 0.0155,-0.03531 0.03962,-0.06718 0.02498,-0.03187 0.05943,-0.05598 0.03531,-0.02412 0.08096,-0.03876 0.04565,-0.01464 0.103353,-0.01464 h 0.607198 v 0.223932 h -0.607198 q -0.04392,0 -0.06718,0.02239 -0.02239,0.02239 -0.02239,0.0689 v 0.301446 q 0,0.04392 0.02325,0.06718 0.02326,0.02325 0.06804,0.02325 h 0.605476 z"
           style="font-style:normal;font-variant:normal;font-weight:normal;font-stretch:normal;font-size:1.76389px;font-family:Audiowide;-inkscape-font-specification:Audiowide;fill:#666666;stroke-width:0.264583"
           id="path874" />
        <path
           d="m 29.807894,15.634215 q 0,0.04651 -0.01636,0.100769 -0.01636,0.0534 -0.0534,0.09991 -0.03617,0.04565 -0.0956,0.07665 -0.05857,0.03101 -0.142972,0.03101 H 29.09562 v -0.212735 h 0.403938 q 0.04565,0 0.07062,-0.02756 0.02498,-0.02842 0.02498,-0.06976 0,-0.04392 -0.02842,-0.0689 -0.02756,-0.02498 -0.06718,-0.02498 H 29.09562 q -0.04565,0 -0.07062,0.02842 -0.02498,0.02756 -0.02498,0.0689 v 0.312643 q 0,0.04479 0.02756,0.06976 0.02842,0.02498 0.06976,0.02498 h 0.402215 v 0.213596 H 29.09562 q -0.04651,0 -0.100769,-0.01636 -0.0534,-0.01636 -0.09991,-0.05254 -0.04565,-0.03703 -0.07665,-0.0956 -0.03101,-0.05943 -0.03101,-0.143833 v -0.314365 q 0,-0.04651 0.01636,-0.09991 0.01636,-0.05426 0.05254,-0.09991 0.03703,-0.04651 0.0956,-0.07752 0.05943,-0.03101 0.143833,-0.03101 h 0.403938 q 0.04651,0 0.09991,0.01637 0.05426,0.01636 0.09991,0.0534 0.04651,0.03617 0.07751,0.0956 0.03101,0.05857 0.03101,0.142972 z"
           style="font-style:normal;font-variant:normal;font-weight:normal;font-stretch:normal;font-size:1.76389px;font-family:Audiowide;-inkscape-font-specification:Audiowide;fill:#666666;stroke-width:0.264583"
           id="path876" />
        <path
           d="m 30.860372,15.942551 q 0,0.05771 -0.01464,0.104214 -0.01464,0.04565 -0.03876,0.08096 -0.02412,0.03445 -0.05598,0.05943 -0.03187,0.02412 -0.06718,0.03962 -0.03445,0.0155 -0.07062,0.02325 -0.03531,0.0069 -0.06718,0.0069 H 29.93967 v -0.223931 h 0.604614 q 0.04565,0 0.0689,-0.02325 0.02326,-0.02325 0.02326,-0.06718 -0.0043,-0.08957 -0.09043,-0.08957 h -0.347094 q -0.07407,0 -0.125746,-0.02584 -0.05168,-0.02584 -0.08441,-0.0646 -0.03187,-0.03876 -0.04651,-0.08354 -0.01378,-0.04479 -0.01378,-0.08354 0,-0.07493 0.0267,-0.125746 0.0267,-0.05168 0.06718,-0.08354 0.04048,-0.03187 0.08785,-0.04565 0.04737,-0.01464 0.08871,-0.01464 h 0.550355 v 0.223932 h -0.548632 q -0.01723,0 -0.02756,0.0043 -0.0095,0.0034 -0.01464,0.01033 -0.0043,0.006 -0.0052,0.01378 -8.62e-4,0.0069 -8.62e-4,0.01378 8.62e-4,0.01378 0.0052,0.02153 0.0043,0.0078 0.01034,0.0112 0.0069,0.0034 0.01464,0.0043 0.0086,0 0.01636,0 h 0.347094 q 0.08613,0 0.146416,0.03101 0.06029,0.03101 0.09732,0.07838 0.03704,0.04651 0.0534,0.10163 0.01723,0.05512 0.01723,0.102492 z"
           style="font-style:normal;font-variant:normal;font-weight:normal;font-stretch:normal;font-size:1.76389px;font-family:Audiowide;-inkscape-font-specification:Audiowide;fill:#666666;stroke-width:0.264583"
           id="path878" />
        <path
           d="m 31.918018,15.942551 q 0,0.05771 -0.01464,0.104214 -0.01464,0.04565 -0.03876,0.08096 -0.02412,0.03445 -0.05598,0.05943 -0.03187,0.02412 -0.06718,0.03962 -0.03445,0.0155 -0.07062,0.02325 -0.03531,0.0069 -0.06718,0.0069 h -0.606338 v -0.223931 h 0.604615 q 0.04565,0 0.0689,-0.02325 0.02325,-0.02325 0.02325,-0.06718 -0.0043,-0.08957 -0.09043,-0.08957 h -0.347094 q -0.07407,0 -0.125746,-0.02584 -0.05168,-0.02584 -0.08441,-0.0646 -0.03187,-0.03876 -0.04651,-0.08354 -0.01378,-0.04479 -0.01378,-0.08354 0,-0.07493 0.0267,-0.125746 0.0267,-0.05168 0.06718,-0.08354 0.04048,-0.03187 0.08785,-0.04565 0.04737,-0.01464 0.08871,-0.01464 h 0.550354 v 0.223932 h -0.548631 q -0.01723,0 -0.02756,0.0043 -0.0095,0.0034 -0.01464,0.01033 -0.0043,0.006 -0.0052,0.01378 -8.61e-4,0.0069 -8.61e-4,0.01378 8.61e-4,0.01378 0.0052,0.02153 0.0043,0.0078 0.01034,0.0112 0.0069,0.0034 0.01464,0.0043 0.0086,0 0.01636,0 h 0.347094 q 0.08613,0 0.146416,0.03101 0.06029,0.03101 0.09732,0.07838 0.03703,0.04651 0.0534,0.10163 0.01723,0.05512 0.01723,0.102492 z"
           style="font-style:normal;font-variant:normal;font-weight:normal;font-stretch:normal;font-size:1.76389px;font-family:Audiowide;-inkscape-font-specification:Audiowide;fill:#666666;stroke-width:0.264583"
           id="path880" />
        <path
           d="m 32.303006,15.134675 h -0.223931 v -0.202399 h 0.223931 z m 0,1.122241 h -0.223931 v -0.931038 h 0.223931 z"
           style="font-style:normal;font-variant:normal;font-weight:normal;font-stretch:normal;font-size:1.76389px;font-family:Audiowide;-inkscape-font-specification:Audiowide;fill:#666666;stroke-width:0.264583"
           id="path882" />
        <path
           d="m 33.54841,16.256916 h -0.223931 v -0.516765 q 0,-0.04392 -0.0155,-0.07838 -0.01464,-0.03531 -0.04048,-0.06029 -0.02584,-0.02498 -0.06115,-0.0379 -0.03445,-0.01378 -0.07493,-0.01378 h -0.39188 v 0.707106 h -0.223931 v -0.819933 q 0,-0.02325 0.0086,-0.04306 0.0086,-0.02067 0.02412,-0.03531 0.0155,-0.0155 0.03617,-0.02412 0.02067,-0.0086 0.04393,-0.0086 h 0.504707 q 0.0422,0 0.08871,0.0095 0.04737,0.0095 0.09302,0.03101 0.04651,0.02067 0.08785,0.0534 0.0422,0.03187 0.07407,0.07838 0.03273,0.04565 0.05168,0.105937 0.01895,0.06029 0.01895,0.136081 z"
           style="font-style:normal;font-variant:normal;font-weight:normal;font-stretch:normal;font-size:1.76389px;font-family:Audiowide;-inkscape-font-specification:Audiowide;fill:#666666;stroke-width:0.264583"
           id="path884" />
        <path
           d="m 34.759362,16.346489 q 0,0.05771 -0.01464,0.103353 -0.01464,0.04651 -0.03876,0.08096 -0.02411,0.03531 -0.05598,0.05943 -0.03187,0.02498 -0.06718,0.04048 -0.03445,0.0155 -0.07063,0.02239 -0.03531,0.0078 -0.06718,0.0078 h -0.403938 v -0.223932 h 0.403938 q 0.04565,0 0.06804,-0.02325 0.02239,-0.02325 0.02239,-0.06718 v -0.707107 q 0,-0.04392 -0.02239,-0.06632 -0.02239,-0.02325 -0.06804,-0.02325 h -0.403938 q -0.04134,0 -0.06546,0.02584 -0.02412,0.02498 -0.02412,0.06373 v 0.303169 q 0,0.04392 0.02325,0.06718 0.02325,0.02325 0.06804,0.02325 h 0.402215 v 0.223931 h -0.403938 q -0.03187,0 -0.06718,-0.0069 -0.03531,-0.0078 -0.07062,-0.02325 -0.03445,-0.0155 -0.06632,-0.03962 -0.03187,-0.02498 -0.05598,-0.05943 -0.02412,-0.03531 -0.03876,-0.08096 -0.01464,-0.04651 -0.01464,-0.104214 v -0.303169 q 0,-0.03187 0.0069,-0.06718 0.0078,-0.03531 0.02325,-0.06976 0.0155,-0.03531 0.03962,-0.06718 0.02498,-0.03187 0.05943,-0.05598 0.03531,-0.02412 0.08096,-0.03876 0.04565,-0.01464 0.103353,-0.01464 h 0.403938 q 0.03187,0 0.06718,0.0078 0.03617,0.0069 0.07063,0.02239 0.03531,0.0155 0.06718,0.04048 0.03187,0.02412 0.05598,0.05943 0.02412,0.03445 0.03876,0.0801 0.01464,0.04565 0.01464,0.103353 z"
           style="font-style:normal;font-variant:normal;font-weight:normal;font-stretch:normal;font-size:1.76389px;font-family:Audiowide;-inkscape-font-specification:Audiowide;fill:#666666;stroke-width:0.264583"
           id="path886" />
      </g>
      <g
         id="text836"
         style="font-size:2.82222px;line-height:1.25;font-family:'Sansita One';-inkscape-font-specification:'Sansita One';white-space:pre;shape-inside:url(#rect838)" />
    </g>
  </g>
</svg>
